{"title":"WWE.Royal.Rumble.2011.DSR.XviD-XWT","uid":6139877,"size":1444429819,"categoryP":"video","categoryS":"tv_shows","magnet":"?xt=urn:btih:a1cc23366a56cc301e3479c875c1e398c13a5f5f&amp;dn=WWE.Royal.Rumble.2011.DSR.XviD-XWT&amp;tr=udp%3A%2F%2Ftracker.openbittorrent.com%3A80&amp;tr=udp%3A%2F%2Fopen.demonii.com%3A1337&amp;tr=udp%3A%2F%2Ftracker.coppersurfer.tk%3A6969&amp;tr=udp%3A%2F%2Fexodus.desync.com%3A6969","seeders":1,"leechers":0,"uploader":"SAFCukO09","files":4,"time":1296463131,"description":"[center][img]http://img209.imageshack.us/img209/1979/royalrumble2011j.jpg[/img][/center]\n\n[center]Part 1 media nfo\n\nFormat                           : AVI\nFormat/Info                      : Audio Video Interleave\nFile size                        : 823 MiB\nDuration                         : 49mn 55s\nOverall bit rate                 : 2 304 Kbps\n\nVideo\nID                               : 0\nFormat                           : MPEG-4 Visual\nCodec ID                         : XVID\nCodec ID/Hint                    : XviD\nDuration                         : 49mn 54s\nBit rate                         : 1 022 Kbps\nWidth                            : 640 pixels\nHeight                           : 368 pixels\nDisplay aspect ratio             : 16:9\nFrame rate                       : 25.000 fps\nColor space                      : YUV\nChroma subsampling               : 4:2:0\nBits/(Pixel*Frame)               : 0.174\nStream size                      : 365 MiB (44%)\n\nAudio\nID                               : 1\nFormat                           : MPEG Audio\nCodec ID                         : 55\nCodec ID/Hint                    : MP3\nDuration                         : 49mn 55s\nBit rate                         : 128 Kbps\nChannel(s)                       : 2 channels\nSampling rate                    : 44.1 KHz\nStream size                      : 45.7 MiB (6%)\nAlignment                        : Aligned on interleaves\nInterleave, duration             : 26 ms (0.65 video frame)\nInterleave, preload duration     : 809 ms\n[/center]\n\n\n[center]Format                           : AVI\nFormat/Info                      : Audio Video Interleave\nFile size                        : 555 MiB\nDuration                         : 40mn 31s\nOverall bit rate                 : 1 914 Kbps\nWriting library                  : MPlayer\n\nVideo\nID                               : 0\nFormat                           : MPEG-4 Visual\nFormat profile                   : Advanced Simple@L5\nFormat settings, BVOP            : Yes\nFormat settings, QPel            : No\nFormat settings, GMC             : No warppoints\nFormat settings, Matrix          : Default (H.263)\nCodec ID                         : XVID\nCodec ID/Hint                    : XviD\nDuration                         : 40mn 30s\nBit rate                         : 1 024 Kbps\nWidth                            : 640 pixels\nHeight                           : 368 pixels\nDisplay aspect ratio             : 16:9\nFrame rate                       : 25.000 fps\nColor space                      : YUV\nChroma subsampling               : 4:2:0\nBit depth                        : 8 bits\nScan type                        : Progressive\nBits/(Pixel*Frame)               : 0.174\nStream size                      : 297 MiB (53%)\nWriting library                  : XviD 1.1.2 (UTC 2006-11-01)\n\nAudio\nID                               : 1\nFormat                           : MPEG Audio\nFormat version                   : Version 1\nFormat profile                   : Layer 3\nMode                             : Joint stereo\nMode extension                   : MS Stereo\nCodec ID                         : 55\nCodec ID/Hint                    : MP3\nDuration                         : 40mn 31s\nBit rate mode                    : Constant\nBit rate                         : 128 Kbps\nChannel(s)                       : 2 channels\nSampling rate                    : 44.1 KHz\nVideo delay                      : 40ms\nStream size                      : 37.1 MiB (7%)\nAlignment                        : Aligned on interleaves\nInterleave, duration             : 26 ms (0.65 video frame)\nInterleave, preload duration     : 809 ms\n\n[/center]","torrent":{"xt":"urn:btih:a1cc23366a56cc301e3479c875c1e398c13a5f5f","amp;dn":"WWE.Royal.Rumble.2011.DSR.XviD-XWT","amp;tr":["udp%3A%2F%2Ftracker.openbittorrent.com%3A80","udp%3A%2F%2Fopen.demonii.com%3A1337","udp%3A%2F%2Ftracker.coppersurfer.tk%3A6969","udp%3A%2F%2Fexodus.desync.com%3A6969"],"infoHash":"a1cc23366a56cc301e3479c875c1e398c13a5f5f","infoHashBuffer":{"type":"Buffer","data":[161,204,35,54,106,86,204,48,30,52,121,200,117,193,227,152,193,58,95,95]},"announce":[],"urlList":[]}}